<svg width="754" height="720" viewBox="0 0 754 720" fill="none" xmlns="http://www.w3.org/2000/svg">
<g opacity="0.7" clip-path="url(#clip0_75_2)">
<path opacity="0.03" d="M73.5999 0.399902C72.2666 1.46657 70.9332 2.66657 69.5999 3.9999C68.2666 5.06657 67.1999 6.26657 66.3999 7.5999C60.7999 14.2666 57.9999 28.6665 57.9999 50.7999V266.4C57.9999 278.4 58.3999 287.067 59.1999 292.4C60.2666 297.467 61.0666 301.067 61.5999 303.2C63.9999 308.8 68.1332 313.333 73.9999 316.8H13.1999C16.1332 315.2 18.5332 312.933 20.3999 310C25.7332 303.067 28.3999 288.533 28.3999 266.4V50.7999C28.3999 38.7999 27.9999 30.2665 27.1999 25.1999C26.3999 20.1332 25.5999 16.5332 24.7999 14.3999C22.3999 8.79989 18.3999 4.13323 12.7999 0.399902H73.5999ZM131.297 105.2C127.03 110 124.897 115.733 124.897 122.4C124.897 129.067 126.897 137.067 130.897 146.4L189.297 285.6L258.897 119.6C259.697 117.467 259.697 115.2 258.897 112.8C258.097 110.4 256.764 108.133 254.897 106C253.83 105.467 253.43 105.2 253.697 105.2H273.297C271.164 107.067 269.03 109.2 266.897 111.6C265.03 113.733 263.43 116.533 262.097 120L179.297 318.4L101.697 135.2C99.5634 129.333 96.7634 123.733 93.2968 118.4C90.0968 112.8 85.6968 108.4 80.0968 105.2H131.297ZM273.338 268.4C273.338 258.267 276.271 249.2 282.138 241.2C288.271 232.933 295.604 225.6 304.138 219.2C312.938 212.533 322.271 206.8 332.138 202C342.004 197.2 350.804 193.067 358.538 189.6C364.404 187.2 369.871 184.8 374.938 182.4C380.004 180 384.671 177.333 388.938 174.4C391.871 172.267 394.271 169.067 396.138 164.8C398.271 160.533 399.204 156.4 398.938 152.4C398.671 145.2 397.738 138.4 396.138 132C394.804 125.6 392.538 120 389.338 115.2C386.138 110.4 381.738 106.667 376.138 104C370.538 101.067 363.471 99.5999 354.938 99.5999C349.604 99.5999 344.004 100.133 338.138 101.2C332.538 102.267 327.338 104.133 322.538 106.8C317.738 109.2 313.738 112.533 310.538 116.8C307.338 120.8 305.738 126 305.738 132.4L306.138 146.8C306.138 150.8 305.204 154.267 303.338 157.2C301.471 159.867 298.271 161.2 293.738 161.2C289.471 161.2 286.404 159.733 284.538 156.8C282.938 153.6 282.138 150.133 282.138 146.4C282.138 138.4 284.271 131.333 288.538 125.2C293.071 119.067 298.804 113.867 305.738 109.6C312.938 105.333 320.804 102.133 329.338 99.9999C338.138 97.5999 346.671 96.3999 354.938 96.3999C361.338 96.3999 367.738 96.9332 374.138 97.9999C380.804 98.7999 386.938 100.4 392.538 102.8C398.138 104.933 403.204 108 407.738 112C412.271 115.733 415.871 120.667 418.538 126.8C419.071 128.4 419.871 132.133 420.938 138C422.004 143.6 422.538 153.2 422.538 166.8V243.2C422.538 250.667 422.538 256.933 422.538 262C422.538 266.8 422.538 270.8 422.538 274C422.804 276.933 422.938 279.333 422.938 281.2C423.204 282.8 423.471 284 423.738 284.8C424.804 290.133 426.671 294.667 429.338 298.4C432.271 302.133 436.804 304 442.938 304H445.338C440.804 308.267 435.738 311.733 430.138 314.4C424.804 317.067 418.938 318.4 412.538 318.4C408.271 318.4 404.404 317.6 400.938 316C397.471 314.4 394.004 312.667 390.538 310.8C385.471 308.133 380.938 306.267 376.938 305.2C373.204 304.133 369.871 303.6 366.938 303.6C362.671 303.6 358.804 304.4 355.338 306C352.138 307.333 348.804 308.933 345.338 310.8C341.871 312.4 338.004 314 333.738 315.6C329.471 316.933 324.271 317.6 318.138 317.6C303.471 317.6 292.271 312.933 284.538 303.6C277.071 294.267 273.338 282.533 273.338 268.4ZM310.138 292.4C314.138 296.667 318.538 300.133 323.338 302.8C328.138 305.2 333.204 306.4 338.538 306.4C342.538 306.4 346.538 305.6 350.538 304C353.738 302.667 356.671 301.733 359.338 301.2C362.271 300.667 364.938 300.4 367.338 300.4C372.138 300.4 376.538 301.2 380.538 302.8C384.538 304.4 388.404 306.267 392.138 308.4C394.271 309.733 396.538 310.933 398.938 312C401.604 313.067 404.138 313.867 406.538 314.4C406.004 314.133 405.604 313.867 405.338 313.6C405.338 313.333 405.071 312.933 404.538 312.4C403.204 311.067 402.004 308.667 400.938 305.2C399.871 301.467 399.204 296.133 398.938 289.2V170.4C394.138 175.2 388.404 179.333 381.738 182.8C375.071 186 367.871 189.333 360.138 192.8C350.271 196.8 340.138 202.267 329.738 209.2C319.604 215.867 311.338 223.467 304.938 232C298.804 240.533 295.604 250 295.338 260.4C295.071 270.533 300.004 281.2 310.138 292.4ZM1.9999 200.4H258L259.2 234C256 228.133 252.267 223.333 248 219.6C243.733 215.6 239.067 212.533 234 210.4C228.933 208 223.467 206.4 217.6 205.6C211.733 204.533 205.733 204 199.6 204H143.6V468C143.6 490.933 146.667 505.6 152.8 512C154.4 514.133 156.267 515.733 158.4 516.8H99.1999C102.4 514.4 104.933 511.733 106.8 508.8C111.867 502.133 114.4 488.533 114.4 468V204H65.1999C58.5332 204 52.2666 204.267 46.3999 204.8C40.5332 205.067 35.0666 206.133 29.9999 208C24.9332 209.6 20.1332 212.133 15.5999 215.6C11.0666 218.8 6.7999 223.333 2.7999 229.2C2.26657 229.733 1.86657 230.4 1.5999 231.2C1.33323 231.733 0.933235 232.267 0.399902 232.8L1.9999 200.4ZM271.263 296C276.863 294.4 282.596 293.6 288.463 293.6C294.063 293.6 299.796 294.4 305.663 296C311.529 297.333 317.263 299.467 322.863 302.4C326.596 304.267 329.929 305.733 332.863 306.8C335.796 307.6 338.196 307.733 340.063 307.2C342.996 307.2 345.663 306.4 348.063 304.8V336.8C341.929 323.733 334.196 313.867 324.863 307.2C315.529 300.267 303.129 296.8 287.663 296.8C283.129 296.8 277.929 297.467 272.063 298.8C264.329 300.933 257.796 304.4 252.463 309.2C247.396 313.733 243.796 318.933 241.663 324.8C239.529 330.667 238.996 336.933 240.063 343.6C241.396 350 244.596 356.4 249.663 362.8C255.529 370 266.863 377.867 283.663 386.4L320.063 404C349.929 418.133 364.863 436.8 364.863 460C364.863 468.267 362.863 476.4 358.863 484.4C355.129 492.133 350.196 498.933 344.063 504.8C337.929 510.667 330.863 515.333 322.863 518.8C314.863 522.533 306.729 524.4 298.463 524.4C292.329 524.4 286.463 523.6 280.863 522C275.263 520.667 269.929 519.2 264.863 517.6C259.796 515.733 254.996 514.133 250.463 512.8C246.196 511.2 242.063 510.4 238.063 510.4C234.596 510.4 231.663 511.067 229.263 512.4V475.6C232.463 482 236.329 488 240.863 493.6C245.663 499.2 250.996 504 256.863 508C262.729 512 268.996 515.2 275.663 517.6C282.329 520 289.263 521.2 296.463 521.2C302.329 521.2 308.063 520.4 313.663 518.8C322.463 516.4 329.529 512.4 334.863 506.8C340.196 500.933 343.663 494.533 345.263 487.6C346.863 480.4 346.463 473.067 344.063 465.6C341.929 458.133 337.663 451.467 331.263 445.6C326.996 441.333 320.729 436.667 312.463 431.6C304.463 426.533 294.196 420.8 281.663 414.4C267.529 407.467 257.129 401.6 250.463 396.8C244.063 391.733 239.796 387.733 237.663 384.8C231.796 377.6 228.596 369.333 228.063 360C227.796 350.667 229.396 341.733 232.863 333.2C236.329 324.4 241.396 316.667 248.063 310C254.996 303.067 262.729 298.4 271.263 296ZM380.369 467.2C380.369 457.067 383.302 448 389.169 440C395.302 431.733 402.769 424.4 411.569 418C420.369 411.333 429.702 405.6 439.569 400.8C449.435 396 458.235 391.867 465.969 388.4C469.969 386.8 474.369 384.933 479.169 382.8C483.969 380.667 488.369 378.267 492.369 375.6C496.369 372.667 499.702 369.333 502.369 365.6C505.035 361.6 506.235 356.8 505.969 351.2C505.702 344 504.902 337.2 503.569 330.8C502.235 324.4 499.969 318.8 496.769 314C493.569 309.2 489.169 305.467 483.569 302.8C477.969 299.867 470.902 298.4 462.369 298.4C457.035 298.4 451.435 298.933 445.569 300C439.702 301.067 434.369 302.933 429.569 305.6C424.769 308 420.769 311.333 417.569 315.6C414.635 319.867 413.169 325.067 413.169 331.2L413.569 345.6C413.569 349.867 412.635 353.467 410.769 356.4C408.902 359.067 405.702 360.4 401.169 360.4C396.635 360.4 393.435 358.8 391.569 355.6C389.969 352.4 389.169 348.933 389.169 345.2C389.169 337.2 391.435 330.133 395.969 324C400.502 317.867 406.235 312.667 413.169 308.4C420.102 304.133 427.969 300.933 436.769 298.8C445.569 296.4 454.102 295.2 462.369 295.2C468.769 295.2 475.169 295.733 481.569 296.8C487.969 297.6 493.969 299.2 499.569 301.6C505.435 303.733 510.635 306.8 515.169 310.8C519.702 314.533 523.302 319.467 525.969 325.6C526.235 326.667 526.635 328.4 527.169 330.8C527.702 332.933 528.235 336.267 528.769 340.8C528.769 341.333 528.769 342.133 528.769 343.2C528.769 344 528.902 344.8 529.169 345.6V354.8C529.435 356.667 529.569 358.4 529.569 360C529.569 361.6 529.569 363.467 529.569 365.6V442.4C529.569 452.8 529.569 460.8 529.569 466.4C529.835 471.733 530.102 475.733 530.369 478.4C528.502 478.933 526.502 479.333 524.369 479.6C522.502 479.867 520.502 480 518.369 480C514.635 480 510.502 479.333 505.969 478L506.369 372.4C501.569 377.2 497.302 381.867 493.569 386.4C490.102 390.667 487.569 394.4 485.969 397.6C479.835 409.067 476.902 421.467 477.169 434.8C477.435 447.867 480.635 458.933 486.769 468C492.369 475.2 498.769 480 505.969 482.4C509.702 483.467 513.702 484 517.969 484C522.502 484 526.635 483.6 530.369 482.8C541.302 479.867 551.035 474 559.569 465.2C568.102 456.4 575.569 446.267 581.969 434.8C588.635 423.067 594.235 411.067 598.769 398.8C603.569 386.533 607.569 375.6 610.769 366C612.102 362.267 613.435 358.667 614.769 355.2C616.369 351.733 618.235 348.267 620.369 344.8C624.102 338.4 628.635 332.267 633.969 326.4C639.569 320.533 645.569 315.467 651.969 311.2C658.635 306.667 665.435 303.2 672.369 300.8C679.569 298.133 686.635 296.8 693.569 296.8C702.902 296.8 711.569 299.467 719.569 304.8C727.569 310.133 733.835 318.933 738.369 331.2C741.302 340.533 742.769 354.533 742.769 373.2V470C742.769 473.2 742.769 476.8 742.769 480.8C743.035 484.533 743.435 488.4 743.969 492.4C744.769 496.4 745.969 500.133 747.569 503.6C749.169 507.067 751.302 509.867 753.969 512H708.769C713.035 508.267 716.235 502.667 718.369 495.2C718.902 493.867 719.169 491.6 719.169 488.4C719.435 485.2 719.569 479.067 719.569 470V377.6C719.569 370.933 719.035 363.6 717.969 355.6C717.169 347.6 715.302 340.267 712.369 333.6C709.702 326.667 705.702 320.933 700.369 316.4C695.035 311.6 687.969 309.2 679.169 309.2C671.169 309.2 663.702 310.933 656.769 314.4C649.835 317.867 643.569 322.4 637.969 328C632.635 333.333 627.835 339.467 623.569 346.4C619.569 353.333 616.369 360.267 613.969 367.2C612.635 370.133 611.569 373.2 610.769 376.4C609.969 379.333 609.169 382.267 608.369 385.2V470C608.369 480.933 608.769 488.533 609.569 492.8C610.369 497.067 611.169 500.133 611.969 502C614.369 506.267 616.902 509.6 619.569 512H574.369C575.702 510.933 576.902 509.6 577.969 508C582.769 501.333 585.169 488.667 585.169 470V462.8C585.169 453.733 583.569 449.2 580.369 449.2C577.969 449.2 574.369 452.133 569.569 458C563.435 465.2 557.169 471.2 550.769 476C544.369 480.8 537.969 483.867 531.569 485.2C531.569 487.333 532.102 489.733 533.169 492.4C534.502 494.8 535.969 496.8 537.569 498.4C542.102 501.6 546.235 503.2 549.969 503.2H552.369C547.835 507.2 542.769 510.533 537.169 513.2C531.835 515.867 526.102 517.2 519.969 517.2C515.702 517.2 511.835 516.533 508.369 515.2C504.902 513.6 501.435 511.867 497.969 510C492.902 507.067 488.369 505.067 484.369 504C480.635 502.933 477.169 502.4 473.969 502.4C469.969 502.4 466.235 503.2 462.769 504.8C459.569 506.133 456.102 507.733 452.369 509.6C448.902 511.467 445.035 513.2 440.769 514.8C436.769 516.133 431.702 516.8 425.569 516.8C410.902 516.8 399.702 512 391.969 502.4C384.235 492.8 380.369 481.067 380.369 467.2ZM417.169 491.2C421.169 495.733 425.569 499.333 430.369 502C435.169 504.4 440.235 505.6 445.569 505.6C449.569 505.6 453.569 504.8 457.569 503.2C463.969 500.533 469.835 499.2 475.169 499.2C479.969 499.2 484.235 500 487.969 501.6C491.702 503.2 495.435 505.067 499.169 507.2C504.502 509.867 509.302 512 513.569 513.6L511.569 511.2C510.235 509.867 509.035 507.6 507.969 504.4C506.902 501.2 506.369 496.267 506.369 489.6V485.2C501.035 483.867 496.502 481.733 492.769 478.8C489.302 475.867 486.502 472.933 484.369 470C481.169 465.2 478.635 459.867 476.769 454C475.169 447.867 474.235 441.467 473.969 434.8C473.969 428.133 474.635 421.467 475.969 414.8C477.569 408.133 479.835 401.867 482.769 396C484.369 393.333 486.502 390.133 489.169 386.4C492.102 382.667 495.435 378.933 499.169 375.2C494.369 378.667 489.169 381.6 483.569 384C478.235 386.4 472.769 388.933 467.169 391.6C457.302 395.867 447.302 401.333 437.169 408C427.035 414.667 418.769 422.267 412.369 430.8C405.969 439.333 402.635 448.8 402.369 459.2C402.102 469.333 407.035 480 417.169 491.2ZM608.369 297.2V359.2C604.902 369.6 601.169 380.4 597.169 391.6C593.435 402.8 589.435 412.267 585.169 420V386C585.169 376.667 585.035 368.933 584.769 362.8C584.769 356.667 584.635 351.733 584.369 348C584.369 344.267 584.235 341.467 583.969 339.6C583.969 337.467 583.835 335.867 583.569 334.8C582.502 330.8 581.302 327.467 579.969 324.8C578.635 321.867 576.902 319.467 574.769 317.6C572.902 315.733 570.502 314.4 567.569 313.6L608.369 297.2ZM13.5999 612C13.5999 597.333 15.4666 583.067 19.1999 569.2C22.9332 555.333 28.6666 543.067 36.3999 532.4C44.1332 521.733 53.8666 513.2 65.5999 506.8C77.5999 500.4 91.5999 497.2 107.6 497.2C118.8 497.2 129.067 499.067 138.4 502.8C148 506.533 156.267 511.733 163.2 518.4C170.133 524.8 175.6 532.667 179.6 542C183.867 551.333 186.267 561.6 186.8 572.8C171.333 572.8 155.733 572.8 140 572.8C124.267 572.533 108.8 573.867 93.5999 576.8C70.6666 581.333 55.4666 589.2 47.9999 600.4C44.7999 605.467 42.7999 610.933 41.9999 616.8C41.1999 622.667 41.3332 628.533 42.3999 634.4C43.4666 640 45.3332 645.6 47.9999 651.2C50.9332 656.533 54.1332 661.333 57.5999 665.6C75.4666 686.667 97.0666 697.2 122.4 697.2C138.667 697.2 151.067 694.133 159.6 688C168.4 681.6 175.067 670.933 179.6 656C179.6 654.933 180.267 654.667 181.6 655.2C182.667 655.2 182.933 655.733 182.4 656.8C179.733 665.6 175.867 673.867 170.8 681.6C166 689.333 160.133 696 153.2 701.6C146.267 707.2 138.533 711.733 130 715.2C121.733 718.4 112.933 720 103.6 720C79.0666 720 57.9999 710.533 40.3999 691.6C22.5332 671.6 13.5999 645.067 13.5999 612ZM39.1999 634.8C38.6666 632.667 38.2666 630.667 37.9999 628.8C37.9999 626.933 37.9999 624.933 37.9999 622.8C37.9999 614 39.9999 606.533 43.9999 600.4C47.9999 594.267 53.1999 589.333 59.5999 585.6C65.9999 581.6 73.3332 578.533 81.5999 576.4C89.8666 574.267 98.2666 572.667 106.8 571.6C115.333 570.533 123.6 570 131.6 570C139.867 569.733 147.067 569.6 153.2 569.6V566.4C152.667 558.667 152 552 151.2 546.4C150.667 540.8 149.6 536.267 148 532.8C142.933 521.6 136.267 513.467 128 508.4C119.733 503.333 110.8 500.8 101.2 500.8C95.0666 500.8 88.7999 501.733 82.3999 503.6C76.2666 505.467 70.1332 508.133 63.9999 511.6C54.3999 516.667 46.7999 523.733 41.1999 532.8C35.8666 541.867 32.2666 552 30.3999 563.2C28.5332 574.133 28.3999 585.867 29.9999 598.4C31.5999 610.667 34.6666 622.8 39.1999 634.8ZM236.375 505.2C232.108 510 229.975 515.733 229.975 522.4C229.975 529.067 231.975 537.067 235.975 546.4L294.375 685.6L363.975 519.6C364.775 517.467 364.775 515.2 363.975 512.8C363.175 510.4 361.842 508.133 359.975 506C358.908 505.467 358.508 505.2 358.775 505.2H378.375C376.242 507.067 374.108 509.2 371.975 511.6C370.108 513.733 368.508 516.533 367.175 520L284.375 718.4L206.775 535.2C204.642 529.333 201.842 523.733 198.375 518.4C195.175 512.8 190.775 508.4 185.175 505.2H236.375ZM378.416 668.4C378.416 658.267 381.349 649.2 387.216 641.2C393.349 632.933 400.682 625.6 409.216 619.2C418.016 612.533 427.349 606.8 437.216 602C447.082 597.2 455.882 593.067 463.616 589.6C469.482 587.2 474.949 584.8 480.016 582.4C485.082 580 489.749 577.333 494.016 574.4C496.949 572.267 499.349 569.067 501.216 564.8C503.349 560.533 504.282 556.4 504.016 552.4C503.749 545.2 502.816 538.4 501.216 532C499.882 525.6 497.616 520 494.416 515.2C491.216 510.4 486.816 506.667 481.216 504C475.616 501.067 468.549 499.6 460.016 499.6C454.682 499.6 449.082 500.133 443.216 501.2C437.616 502.267 432.416 504.133 427.616 506.8C422.816 509.2 418.816 512.533 415.616 516.8C412.416 520.8 410.816 526 410.816 532.4L411.216 546.8C411.216 550.8 410.282 554.267 408.416 557.2C406.549 559.867 403.349 561.2 398.816 561.2C394.549 561.2 391.482 559.733 389.616 556.8C388.016 553.6 387.216 550.133 387.216 546.4C387.216 538.4 389.349 531.333 393.616 525.2C398.149 519.067 403.882 513.867 410.816 509.6C418.016 505.333 425.882 502.133 434.416 500C443.216 497.6 451.749 496.4 460.016 496.4C466.416 496.4 472.816 496.933 479.216 498C485.882 498.8 492.016 500.4 497.616 502.8C503.216 504.933 508.282 508 512.816 512C517.349 515.733 520.949 520.667 523.616 526.8C524.149 528.4 524.949 532.133 526.016 538C527.082 543.6 527.616 553.2 527.616 566.8V643.2C527.616 650.667 527.616 656.933 527.616 662C527.616 666.8 527.616 670.8 527.616 674C527.882 676.933 528.016 679.333 528.016 681.2C528.282 682.8 528.549 684 528.816 684.8C529.882 690.133 531.749 694.667 534.416 698.4C537.349 702.133 541.882 704 548.016 704H550.416C545.882 708.267 540.816 711.733 535.216 714.4C529.882 717.067 524.016 718.4 517.616 718.4C513.349 718.4 509.482 717.6 506.016 716C502.549 714.4 499.082 712.667 495.616 710.8C490.549 708.133 486.016 706.267 482.016 705.2C478.282 704.133 474.949 703.6 472.016 703.6C467.749 703.6 463.882 704.4 460.416 706C457.216 707.333 453.882 708.933 450.416 710.8C446.949 712.4 443.082 714 438.816 715.6C434.549 716.933 429.349 717.6 423.216 717.6C408.549 717.6 397.349 712.933 389.616 703.6C382.149 694.267 378.416 682.533 378.416 668.4ZM415.216 692.4C419.216 696.667 423.616 700.133 428.416 702.8C433.216 705.2 438.282 706.4 443.616 706.4C447.616 706.4 451.616 705.6 455.616 704C458.816 702.667 461.749 701.733 464.416 701.2C467.349 700.667 470.016 700.4 472.416 700.4C477.216 700.4 481.616 701.2 485.616 702.8C489.616 704.4 493.482 706.267 497.216 708.4C499.349 709.733 501.616 710.933 504.016 712C506.682 713.067 509.216 713.867 511.616 714.4C511.082 714.133 510.682 713.867 510.416 713.6C510.416 713.333 510.149 712.933 509.616 712.4C508.282 711.067 507.082 708.667 506.016 705.2C504.949 701.467 504.282 696.133 504.016 689.2V570.4C499.216 575.2 493.482 579.333 486.816 582.8C480.149 586 472.949 589.333 465.216 592.8C455.349 596.8 445.216 602.267 434.816 609.2C424.682 615.867 416.416 623.467 410.016 632C403.882 640.533 400.682 650 400.416 660.4C400.149 670.533 405.082 681.2 415.216 692.4Z" fill="black"/>
</g>
<defs>
<clipPath id="clip0_75_2">
<rect width="754" height="720" fill="white"/>
</clipPath>
</defs>
</svg>
