<svg width="50" height="50" viewBox="0 0 50 50" fill="none" xmlns="http://www.w3.org/2000/svg">
<path d="M34.7209 35.9182C34.3914 35.9163 34.0705 35.8124 33.8025 35.6207C33.5344 35.4291 33.3323 35.1591 33.2239 34.8479C33.1155 34.5367 33.1062 34.1996 33.1971 33.8829C33.2881 33.5662 33.475 33.2854 33.732 33.0792L43.4293 25.4554L33.8596 17.8953C33.6952 17.7655 33.558 17.6045 33.4558 17.4216C33.3536 17.2387 33.2884 17.0375 33.2639 16.8294C33.2395 16.6213 33.2563 16.4104 33.3133 16.2088C33.3704 16.0072 33.4666 15.8188 33.5965 15.6544C33.7263 15.49 33.8873 15.3528 34.0702 15.2506C34.2531 15.1484 34.4543 15.0832 34.6624 15.0587C34.8705 15.0343 35.0814 15.0511 35.283 15.1081C35.4845 15.1652 35.6729 15.2614 35.8374 15.3913L47.002 24.1954C47.1941 24.3445 47.3495 24.5355 47.4565 24.7539C47.5634 24.9723 47.619 25.2122 47.619 25.4554C47.619 25.6985 47.5634 25.9385 47.4565 26.1569C47.3495 26.3753 47.1941 26.5663 47.002 26.7154L35.6938 35.5354C35.4217 35.7687 35.079 35.9036 34.7209 35.9182Z" fill="black"/>
<path d="M16.4109 38.2946C16.0585 38.2935 15.7164 38.1757 15.438 37.9596L3.69918 28.7887C3.51493 28.6353 3.36763 28.4424 3.26822 28.2242C3.16882 28.0061 3.11986 27.7683 3.125 27.5287C3.128 27.2878 3.18553 27.0507 3.29326 26.8353C3.40099 26.6198 3.55613 26.4315 3.74703 26.2846L15.3901 17.1137C15.5556 16.9838 15.745 16.8878 15.9476 16.8312C16.1502 16.7745 16.3619 16.7583 16.5707 16.7835C16.7795 16.8087 16.9814 16.8747 17.1647 16.9779C17.348 17.0811 17.5091 17.2193 17.639 17.3848C17.7689 17.5503 17.8649 17.7397 17.9215 17.9423C17.9782 18.1448 17.9944 18.3566 17.9692 18.5654C17.944 18.7742 17.8779 18.9761 17.7748 19.1594C17.6716 19.3426 17.5333 19.5038 17.3679 19.6337L7.30376 27.6084L17.4476 35.5831C17.7046 35.7893 17.8915 36.0701 17.9825 36.3868C18.0735 36.7035 18.0641 37.0407 17.9558 37.3519C17.8474 37.663 17.6452 37.933 17.3772 38.1247C17.1091 38.3163 16.7883 38.4202 16.4587 38.4221L16.4109 38.2946Z" fill="black"/>
<path d="M20.7651 47.7843H20.4142C20.2085 47.7391 20.0137 47.6535 19.8413 47.5326C19.6688 47.4117 19.5219 47.2579 19.4092 47.0799C19.2965 46.902 19.2202 46.7035 19.1846 46.4959C19.1491 46.2883 19.155 46.0757 19.202 45.8703L28.6441 4.36987C28.6858 4.16294 28.7683 3.96636 28.8865 3.79152C29.0048 3.61668 29.1567 3.46707 29.3332 3.35134C29.5098 3.23562 29.7075 3.1561 29.915 3.11738C30.1226 3.07867 30.3357 3.08153 30.5421 3.12581C30.7464 3.17282 30.9394 3.25963 31.1101 3.38129C31.2808 3.50295 31.4258 3.65706 31.5369 3.83482C31.648 4.01257 31.723 4.21049 31.7575 4.41724C31.7921 4.62399 31.7856 4.83552 31.7383 5.03975L22.2643 46.5402C22.187 46.8841 21.998 47.1927 21.7267 47.4178C21.4555 47.6428 21.1173 47.7717 20.7651 47.7843Z" fill="black"/>
</svg>
