<svg width="46" height="50" viewBox="0 0 46 50" fill="none" xmlns="http://www.w3.org/2000/svg">
<path d="M41.6694 6.50219H41.0761C42.2069 4.66111 41.7894 2.18938 39.9745 0.842825C38.0189 -0.607928 35.24 -0.140945 33.8753 1.89847L30.7947 6.50228H4.33062C2.15537 6.50228 0.385681 8.27198 0.385681 10.4472V35.6688C0.385681 37.8441 2.15537 39.6137 4.33062 39.6137H19.654L18.4962 44.4766H15.9973C14.3687 44.4766 13.0437 45.8015 13.0437 47.4301V48.0468H9.96323C9.42388 48.0468 8.98669 48.4841 8.98669 49.0233C8.98669 49.5626 9.42388 49.9999 9.96323 49.9999H36.0368C36.5762 49.9999 37.0134 49.5626 37.0134 49.0233C37.0134 48.4841 36.5762 48.0468 36.0368 48.0468H32.9563V47.4301C32.9563 45.8015 31.6314 44.4766 30.0028 44.4766H27.5039L26.3461 39.6137H41.6694C43.8447 39.6137 45.6144 37.8441 45.6144 35.6688V30.1191V10.4471C45.6144 8.27188 43.8447 6.50219 41.6694 6.50219ZM27.6772 23.6697C26.1504 24.7385 23.29 23.2857 20.5584 24.7433C19.8919 21.281 20.3122 18.0247 23.7813 17.306C24.2297 17.2125 24.7124 17.1702 25.1233 17.1784C26.2975 18.0496 27.4852 18.9308 28.656 19.7996C29.1686 21.2906 28.9762 22.7605 27.6772 23.6697ZM28.6614 13.2023L31.4257 15.2533L29.2999 17.8451C28.4247 17.1958 27.6724 16.6376 26.7972 15.9882C26.9789 15.7167 28.4953 13.4505 28.6614 13.2023ZM35.4986 2.98468C36.2382 1.87913 37.7467 1.62191 38.8107 2.41145C39.8751 3.20108 40.0658 4.71921 39.2223 5.74761C37.7258 7.57209 34.1678 11.91 32.6656 13.7415L29.7487 11.5773L35.4986 2.98468ZM31.0032 47.4301V48.0468H14.9968V47.4301C14.9968 46.8785 15.4456 46.4297 15.9973 46.4297H30.0027C30.5543 46.4297 31.0032 46.8785 31.0032 47.4301ZM25.4961 44.4766H20.5038L21.6616 39.6137H24.3383L25.4961 44.4766ZM43.6613 35.6688C43.6613 36.7671 42.7678 37.6607 41.6694 37.6607C40.1193 37.6607 6.07366 37.6607 4.33072 37.6607C3.2324 37.6607 2.33887 36.7671 2.33887 35.6688V31.0957H5.12944C5.66878 31.0957 6.10598 30.6584 6.10598 30.1191C6.10598 29.5799 5.66878 29.1426 5.12944 29.1426H2.33867V10.4471C2.33867 9.34881 3.23221 8.45527 4.33053 8.45527H29.4878C28.5522 9.85339 25.8229 13.9322 24.9583 15.2241C23.0446 15.2414 21.134 15.9081 19.8833 17.3682C18.1812 19.355 17.8822 22.4768 18.9945 26.6468C19.1846 27.3599 20.0744 27.6153 20.6127 27.1011C23.1378 24.6884 26.2826 27.3201 29.0989 25.0407C30.818 23.6491 31.2248 21.4369 30.5766 19.3681C31.4529 18.2998 38.6491 9.52615 39.5274 8.45527H41.6693C42.7676 8.45527 43.6611 9.34881 43.6611 10.4471V29.1425H12.9416C12.4022 29.1425 11.965 29.5798 11.965 30.119C11.965 30.6583 12.4022 31.0956 12.9416 31.0956H43.6613V35.6688Z" fill="black"/>
<path d="M8.84698 29.1612C8.37687 29.2573 8.06183 29.6636 8.06183 30.1193C8.06183 30.7301 8.62032 31.1979 9.22882 31.0763C9.76954 30.9666 10.0989 30.4455 9.99542 29.9279C9.88673 29.3937 9.36857 29.0562 8.84698 29.1612Z" fill="black"/>
</svg>
