<svg width="189" height="37" viewBox="0 0 189 37" fill="none" xmlns="http://www.w3.org/2000/svg">
<path d="M6.96 3.24C6.82667 3.34667 6.69333 3.46667 6.56 3.6C6.42667 3.70667 6.32 3.82667 6.24 3.96C5.68 4.62667 5.4 6.06666 5.4 8.28V29.84C5.4 31.04 5.44 31.9067 5.52 32.44C5.62667 32.9467 5.70667 33.3067 5.76 33.52C6 34.08 6.41333 34.5333 7 34.88H0.92C1.21333 34.72 1.45333 34.4933 1.64 34.2C2.17333 33.5067 2.44 32.0533 2.44 29.84V8.28C2.44 7.08 2.4 6.22666 2.32 5.72C2.24 5.21333 2.16 4.85333 2.08 4.64C1.84 4.08 1.44 3.61333 0.88 3.24H6.96ZM12.7297 13.72C12.303 14.2 12.0897 14.7733 12.0897 15.44C12.0897 16.1067 12.2897 16.9067 12.6897 17.84L18.5297 31.76L25.4897 15.16C25.5697 14.9467 25.5697 14.72 25.4897 14.48C25.4097 14.24 25.2764 14.0133 25.0897 13.8C24.983 13.7467 24.943 13.72 24.9697 13.72H26.9297C26.7164 13.9067 26.503 14.12 26.2897 14.36C26.103 14.5733 25.943 14.8533 25.8097 15.2L17.5297 35.04L9.76969 16.72C9.55635 16.1333 9.27635 15.5733 8.92969 15.04C8.60969 14.48 8.16969 14.04 7.60969 13.72H12.7297ZM26.9338 30.04C26.9338 29.0267 27.2271 28.12 27.8138 27.32C28.4271 26.4933 29.1604 25.76 30.0138 25.12C30.8938 24.4533 31.8271 23.88 32.8138 23.4C33.8004 22.92 34.6804 22.5067 35.4538 22.16C36.0404 21.92 36.5871 21.68 37.0938 21.44C37.6004 21.2 38.0671 20.9333 38.4938 20.64C38.7871 20.4267 39.0271 20.1067 39.2138 19.68C39.4271 19.2533 39.5204 18.84 39.4938 18.44C39.4671 17.72 39.3738 17.04 39.2138 16.4C39.0804 15.76 38.8538 15.2 38.5338 14.72C38.2138 14.24 37.7738 13.8667 37.2138 13.6C36.6538 13.3067 35.9471 13.16 35.0938 13.16C34.5604 13.16 34.0004 13.2133 33.4138 13.32C32.8538 13.4267 32.3338 13.6133 31.8538 13.88C31.3738 14.12 30.9738 14.4533 30.6538 14.88C30.3338 15.28 30.1738 15.8 30.1738 16.44L30.2138 17.88C30.2138 18.28 30.1204 18.6267 29.9338 18.92C29.7471 19.1867 29.4271 19.32 28.9738 19.32C28.5471 19.32 28.2404 19.1733 28.0538 18.88C27.8938 18.56 27.8138 18.2133 27.8138 17.84C27.8138 17.04 28.0271 16.3333 28.4538 15.72C28.9071 15.1067 29.4804 14.5867 30.1738 14.16C30.8938 13.7333 31.6804 13.4133 32.5338 13.2C33.4138 12.96 34.2671 12.84 35.0938 12.84C35.7338 12.84 36.3738 12.8933 37.0138 13C37.6804 13.08 38.2938 13.24 38.8538 13.48C39.4138 13.6933 39.9204 14 40.3738 14.4C40.8271 14.7733 41.1871 15.2667 41.4538 15.88C41.5071 16.04 41.5871 16.4133 41.6938 17C41.8004 17.56 41.8538 18.52 41.8538 19.88V27.52C41.8538 28.2667 41.8538 28.8933 41.8538 29.4C41.8538 29.88 41.8538 30.28 41.8538 30.6C41.8804 30.8933 41.8938 31.1333 41.8938 31.32C41.9204 31.48 41.9471 31.6 41.9738 31.68C42.0804 32.2133 42.2671 32.6667 42.5338 33.04C42.8271 33.4133 43.2804 33.6 43.8938 33.6H44.1338C43.6804 34.0267 43.1738 34.3733 42.6138 34.64C42.0804 34.9067 41.4938 35.04 40.8538 35.04C40.4271 35.04 40.0404 34.96 39.6938 34.8C39.3471 34.64 39.0004 34.4667 38.6538 34.28C38.1471 34.0133 37.6938 33.8267 37.2938 33.72C36.9204 33.6133 36.5871 33.56 36.2938 33.56C35.8671 33.56 35.4804 33.64 35.1338 33.8C34.8138 33.9333 34.4804 34.0933 34.1338 34.28C33.7871 34.44 33.4004 34.6 32.9738 34.76C32.5471 34.8933 32.0271 34.96 31.4138 34.96C29.9471 34.96 28.8271 34.4933 28.0538 33.56C27.3071 32.6267 26.9338 31.4533 26.9338 30.04ZM30.6138 32.44C31.0138 32.8667 31.4538 33.2133 31.9338 33.48C32.4138 33.72 32.9204 33.84 33.4538 33.84C33.8538 33.84 34.2538 33.76 34.6538 33.6C34.9738 33.4667 35.2671 33.3733 35.5338 33.32C35.8271 33.2667 36.0938 33.24 36.3338 33.24C36.8138 33.24 37.2538 33.32 37.6538 33.48C38.0538 33.64 38.4404 33.8267 38.8138 34.04C39.0271 34.1733 39.2538 34.2933 39.4938 34.4C39.7604 34.5067 40.0138 34.5867 40.2538 34.64C40.2004 34.6133 40.1604 34.5867 40.1338 34.56C40.1338 34.5333 40.1071 34.4933 40.0538 34.44C39.9204 34.3067 39.8004 34.0667 39.6938 33.72C39.5871 33.3467 39.5204 32.8133 39.4938 32.12V20.24C39.0138 20.72 38.4404 21.1333 37.7738 21.48C37.1071 21.8 36.3871 22.1333 35.6138 22.48C34.6271 22.88 33.6138 23.4267 32.5738 24.12C31.5604 24.7867 30.7338 25.5467 30.0938 26.4C29.4804 27.2533 29.1604 28.2 29.1338 29.24C29.1071 30.2533 29.6004 31.32 30.6138 32.44ZM56.9484 3.24H82.5484L82.6684 6.6C82.3484 6.01333 81.9751 5.53333 81.5484 5.16C81.1218 4.76 80.6551 4.45333 80.1484 4.24C79.6418 4 79.0951 3.84 78.5084 3.76C77.9218 3.65333 77.3218 3.6 76.7084 3.6H71.1084V30C71.1084 32.2933 71.4151 33.76 72.0284 34.4C72.1884 34.6133 72.3751 34.7733 72.5884 34.88H66.6684C66.9884 34.64 67.2418 34.3733 67.4284 34.08C67.9351 33.4133 68.1884 32.0533 68.1884 30V3.6H63.2684C62.6018 3.6 61.9751 3.62667 61.3884 3.68C60.8018 3.70666 60.2551 3.81333 59.7484 4C59.2418 4.16 58.7618 4.41333 58.3084 4.76C57.8551 5.08 57.4284 5.53333 57.0284 6.12C56.9751 6.17333 56.9351 6.24 56.9084 6.32C56.8818 6.37333 56.8418 6.42666 56.7884 6.48L56.9484 3.24ZM83.8747 12.8C84.4347 12.64 85.008 12.56 85.5947 12.56C86.1547 12.56 86.728 12.64 87.3147 12.8C87.9014 12.9333 88.4747 13.1467 89.0347 13.44C89.408 13.6267 89.7414 13.7733 90.0347 13.88C90.328 13.96 90.568 13.9733 90.7547 13.92C91.048 13.92 91.3147 13.84 91.5547 13.68V16.88C90.9414 15.5733 90.168 14.5867 89.2347 13.92C88.3014 13.2267 87.0614 12.88 85.5147 12.88C85.0614 12.88 84.5414 12.9467 83.9547 13.08C83.1814 13.2933 82.528 13.64 81.9947 14.12C81.488 14.5733 81.128 15.0933 80.9147 15.68C80.7014 16.2667 80.648 16.8933 80.7547 17.56C80.888 18.2 81.208 18.84 81.7147 19.48C82.3014 20.2 83.4347 20.9867 85.1147 21.84L88.7547 23.6C91.7414 25.0133 93.2347 26.88 93.2347 29.2C93.2347 30.0267 93.0347 30.84 92.6347 31.64C92.2614 32.4133 91.768 33.0933 91.1547 33.68C90.5414 34.2667 89.8347 34.7333 89.0347 35.08C88.2347 35.4533 87.4214 35.64 86.5947 35.64C85.9814 35.64 85.3947 35.56 84.8347 35.4C84.2747 35.2667 83.7414 35.12 83.2347 34.96C82.728 34.7733 82.248 34.6133 81.7947 34.48C81.368 34.32 80.9547 34.24 80.5547 34.24C80.208 34.24 79.9147 34.3067 79.6747 34.44V30.76C79.9947 31.4 80.3814 32 80.8347 32.56C81.3147 33.12 81.848 33.6 82.4347 34C83.0214 34.4 83.648 34.72 84.3147 34.96C84.9814 35.2 85.6747 35.32 86.3947 35.32C86.9814 35.32 87.5547 35.24 88.1147 35.08C88.9947 34.84 89.7014 34.44 90.2347 33.88C90.768 33.2933 91.1147 32.6533 91.2747 31.96C91.4347 31.24 91.3947 30.5067 91.1547 29.76C90.9414 29.0133 90.5147 28.3467 89.8747 27.76C89.448 27.3333 88.8214 26.8667 87.9947 26.36C87.1947 25.8533 86.168 25.28 84.9147 24.64C83.5014 23.9467 82.4614 23.36 81.7947 22.88C81.1547 22.3733 80.728 21.9733 80.5147 21.68C79.928 20.96 79.608 20.1333 79.5547 19.2C79.528 18.2667 79.688 17.3733 80.0347 16.52C80.3814 15.64 80.888 14.8667 81.5547 14.2C82.248 13.5067 83.0214 13.04 83.8747 12.8ZM94.7853 29.92C94.7853 28.9067 95.0786 28 95.6653 27.2C96.2786 26.3733 97.0253 25.64 97.9053 25C98.7853 24.3333 99.7186 23.76 100.705 23.28C101.692 22.8 102.572 22.3867 103.345 22.04C103.745 21.88 104.185 21.6933 104.665 21.48C105.145 21.2667 105.585 21.0267 105.985 20.76C106.385 20.4667 106.719 20.1333 106.985 19.76C107.252 19.36 107.372 18.88 107.345 18.32C107.319 17.6 107.239 16.92 107.105 16.28C106.972 15.64 106.745 15.08 106.425 14.6C106.105 14.12 105.665 13.7467 105.105 13.48C104.545 13.1867 103.839 13.04 102.985 13.04C102.452 13.04 101.892 13.0933 101.305 13.2C100.719 13.3067 100.185 13.4933 99.7053 13.76C99.2253 14 98.8253 14.3333 98.5053 14.76C98.212 15.1867 98.0653 15.7067 98.0653 16.32L98.1053 17.76C98.1053 18.1867 98.012 18.5467 97.8253 18.84C97.6386 19.1067 97.3186 19.24 96.8653 19.24C96.412 19.24 96.092 19.08 95.9053 18.76C95.7453 18.44 95.6653 18.0933 95.6653 17.72C95.6653 16.92 95.892 16.2133 96.3453 15.6C96.7986 14.9867 97.372 14.4667 98.0653 14.04C98.7586 13.6133 99.5453 13.2933 100.425 13.08C101.305 12.84 102.159 12.72 102.985 12.72C103.625 12.72 104.265 12.7733 104.905 12.88C105.545 12.96 106.145 13.12 106.705 13.36C107.292 13.5733 107.812 13.88 108.265 14.28C108.719 14.6533 109.079 15.1467 109.345 15.76C109.372 15.8667 109.412 16.04 109.465 16.28C109.519 16.4933 109.572 16.8267 109.625 17.28C109.625 17.3333 109.625 17.4133 109.625 17.52C109.625 17.6 109.639 17.68 109.665 17.76V18.68C109.692 18.8667 109.705 19.04 109.705 19.2C109.705 19.36 109.705 19.5467 109.705 19.76V27.44C109.705 28.48 109.705 29.28 109.705 29.84C109.732 30.3733 109.759 30.7733 109.785 31.04C109.599 31.0933 109.399 31.1333 109.185 31.16C108.999 31.1867 108.799 31.2 108.585 31.2C108.212 31.2 107.799 31.1333 107.345 31L107.385 20.44C106.905 20.92 106.479 21.3867 106.105 21.84C105.759 22.2667 105.505 22.64 105.345 22.96C104.732 24.1067 104.439 25.3467 104.465 26.68C104.492 27.9867 104.812 29.0933 105.425 30C105.985 30.72 106.625 31.2 107.345 31.44C107.719 31.5467 108.119 31.6 108.545 31.6C108.999 31.6 109.412 31.56 109.785 31.48C110.879 31.1867 111.852 30.6 112.705 29.72C113.559 28.84 114.305 27.8267 114.945 26.68C115.612 25.5067 116.172 24.3067 116.625 23.08C117.105 21.8533 117.505 20.76 117.825 19.8C117.959 19.4267 118.092 19.0667 118.225 18.72C118.385 18.3733 118.572 18.0267 118.785 17.68C119.159 17.04 119.612 16.4267 120.145 15.84C120.705 15.2533 121.305 14.7467 121.945 14.32C122.612 13.8667 123.292 13.52 123.985 13.28C124.705 13.0133 125.412 12.88 126.105 12.88C127.039 12.88 127.905 13.1467 128.705 13.68C129.505 14.2133 130.132 15.0933 130.585 16.32C130.879 17.2533 131.025 18.6533 131.025 20.52V30.2C131.025 30.52 131.025 30.88 131.025 31.28C131.052 31.6533 131.092 32.04 131.145 32.44C131.225 32.84 131.345 33.2133 131.505 33.56C131.665 33.9067 131.879 34.1867 132.145 34.4H127.625C128.052 34.0267 128.372 33.4667 128.585 32.72C128.639 32.5867 128.665 32.36 128.665 32.04C128.692 31.72 128.705 31.1067 128.705 30.2V20.96C128.705 20.2933 128.652 19.56 128.545 18.76C128.465 17.96 128.279 17.2267 127.985 16.56C127.719 15.8667 127.319 15.2933 126.785 14.84C126.252 14.36 125.545 14.12 124.665 14.12C123.865 14.12 123.119 14.2933 122.425 14.64C121.732 14.9867 121.105 15.44 120.545 16C120.012 16.5333 119.532 17.1467 119.105 17.84C118.705 18.5333 118.385 19.2267 118.145 19.92C118.012 20.2133 117.905 20.52 117.825 20.84C117.745 21.1333 117.665 21.4267 117.585 21.72V30.2C117.585 31.2933 117.625 32.0533 117.705 32.48C117.785 32.9067 117.865 33.2133 117.945 33.4C118.185 33.8267 118.439 34.16 118.705 34.4H114.185C114.319 34.2933 114.439 34.16 114.545 34C115.025 33.3333 115.265 32.0667 115.265 30.2V29.48C115.265 28.5733 115.105 28.12 114.785 28.12C114.545 28.12 114.185 28.4133 113.705 29C113.092 29.72 112.465 30.32 111.825 30.8C111.185 31.28 110.545 31.5867 109.905 31.72C109.905 31.9333 109.959 32.1733 110.065 32.44C110.199 32.68 110.345 32.88 110.505 33.04C110.959 33.36 111.372 33.52 111.745 33.52H111.985C111.532 33.92 111.025 34.2533 110.465 34.52C109.932 34.7867 109.359 34.92 108.745 34.92C108.319 34.92 107.932 34.8533 107.585 34.72C107.239 34.56 106.892 34.3867 106.545 34.2C106.039 33.9067 105.585 33.7067 105.185 33.6C104.812 33.4933 104.465 33.44 104.145 33.44C103.745 33.44 103.372 33.52 103.025 33.68C102.705 33.8133 102.359 33.9733 101.985 34.16C101.639 34.3467 101.252 34.52 100.825 34.68C100.425 34.8133 99.9186 34.88 99.3053 34.88C97.8386 34.88 96.7186 34.4 95.9453 33.44C95.172 32.48 94.7853 31.3067 94.7853 29.92ZM98.4653 32.32C98.8653 32.7733 99.3053 33.1333 99.7853 33.4C100.265 33.64 100.772 33.76 101.305 33.76C101.705 33.76 102.105 33.68 102.505 33.52C103.145 33.2533 103.732 33.12 104.265 33.12C104.745 33.12 105.172 33.2 105.545 33.36C105.919 33.52 106.292 33.7067 106.665 33.92C107.199 34.1867 107.679 34.4 108.105 34.56L107.905 34.32C107.772 34.1867 107.652 33.96 107.545 33.64C107.439 33.32 107.385 32.8267 107.385 32.16V31.72C106.852 31.5867 106.399 31.3733 106.025 31.08C105.679 30.7867 105.399 30.4933 105.185 30.2C104.865 29.72 104.612 29.1867 104.425 28.6C104.265 27.9867 104.172 27.3467 104.145 26.68C104.145 26.0133 104.212 25.3467 104.345 24.68C104.505 24.0133 104.732 23.3867 105.025 22.8C105.185 22.5333 105.399 22.2133 105.665 21.84C105.959 21.4667 106.292 21.0933 106.665 20.72C106.185 21.0667 105.665 21.36 105.105 21.6C104.572 21.84 104.025 22.0933 103.465 22.36C102.479 22.7867 101.479 23.3333 100.465 24C99.452 24.6667 98.6253 25.4267 97.9853 26.28C97.3453 27.1333 97.012 28.08 96.9853 29.12C96.9586 30.1333 97.452 31.2 98.4653 32.32ZM117.585 12.92V19.12C117.239 20.16 116.865 21.24 116.465 22.36C116.092 23.48 115.692 24.4267 115.265 25.2V21.8C115.265 20.8667 115.252 20.0933 115.225 19.48C115.225 18.8667 115.212 18.3733 115.185 18C115.185 17.6267 115.172 17.3467 115.145 17.16C115.145 16.9467 115.132 16.7867 115.105 16.68C114.999 16.28 114.879 15.9467 114.745 15.68C114.612 15.3867 114.439 15.1467 114.225 14.96C114.039 14.7733 113.799 14.64 113.505 14.56L117.585 12.92ZM133.968 24.4C133.968 22.9333 134.154 21.5067 134.528 20.12C134.901 18.7333 135.474 17.5067 136.248 16.44C137.021 15.3733 137.994 14.52 139.168 13.88C140.368 13.24 141.768 12.92 143.368 12.92C144.488 12.92 145.514 13.1067 146.448 13.48C147.408 13.8533 148.234 14.3733 148.928 15.04C149.621 15.68 150.168 16.4667 150.568 17.4C150.994 18.3333 151.234 19.36 151.288 20.48C149.741 20.48 148.181 20.48 146.608 20.48C145.034 20.4533 143.488 20.5867 141.968 20.88C139.674 21.3333 138.154 22.12 137.408 23.24C137.088 23.7467 136.888 24.2933 136.808 24.88C136.728 25.4667 136.741 26.0533 136.848 26.64C136.954 27.2 137.141 27.76 137.408 28.32C137.701 28.8533 138.021 29.3333 138.368 29.76C140.154 31.8667 142.314 32.92 144.848 32.92C146.474 32.92 147.714 32.6133 148.568 32C149.448 31.36 150.114 30.2933 150.568 28.8C150.568 28.6933 150.634 28.6667 150.768 28.72C150.874 28.72 150.901 28.7733 150.848 28.88C150.581 29.76 150.194 30.5867 149.688 31.36C149.208 32.1333 148.621 32.8 147.928 33.36C147.234 33.92 146.461 34.3733 145.608 34.72C144.781 35.04 143.901 35.2 142.968 35.2C140.514 35.2 138.408 34.2533 136.648 32.36C134.861 30.36 133.968 27.7067 133.968 24.4ZM136.528 26.68C136.474 26.4667 136.434 26.2667 136.408 26.08C136.408 25.8933 136.408 25.6933 136.408 25.48C136.408 24.6 136.608 23.8533 137.008 23.24C137.408 22.6267 137.928 22.1333 138.568 21.76C139.208 21.36 139.941 21.0533 140.768 20.84C141.594 20.6267 142.434 20.4667 143.288 20.36C144.141 20.2533 144.968 20.2 145.768 20.2C146.594 20.1733 147.314 20.16 147.928 20.16V19.84C147.874 19.0667 147.808 18.4 147.728 17.84C147.674 17.28 147.568 16.8267 147.408 16.48C146.901 15.36 146.234 14.5467 145.408 14.04C144.581 13.5333 143.688 13.28 142.728 13.28C142.114 13.28 141.488 13.3733 140.848 13.56C140.234 13.7467 139.621 14.0133 139.008 14.36C138.048 14.8667 137.288 15.5733 136.728 16.48C136.194 17.3867 135.834 18.4 135.648 19.52C135.461 20.6133 135.448 21.7867 135.608 23.04C135.768 24.2667 136.074 25.48 136.528 26.68ZM156.245 13.72C155.819 14.2 155.605 14.7733 155.605 15.44C155.605 16.1067 155.805 16.9067 156.205 17.84L162.045 31.76L169.005 15.16C169.085 14.9467 169.085 14.72 169.005 14.48C168.925 14.24 168.792 14.0133 168.605 13.8C168.499 13.7467 168.459 13.72 168.485 13.72H170.445C170.232 13.9067 170.019 14.12 169.805 14.36C169.619 14.5733 169.459 14.8533 169.325 15.2L161.045 35.04L153.285 16.72C153.072 16.1333 152.792 15.5733 152.445 15.04C152.125 14.48 151.685 14.04 151.125 13.72H156.245ZM170.449 30.04C170.449 29.0267 170.743 28.12 171.329 27.32C171.943 26.4933 172.676 25.76 173.529 25.12C174.409 24.4533 175.343 23.88 176.329 23.4C177.316 22.92 178.196 22.5067 178.969 22.16C179.556 21.92 180.103 21.68 180.609 21.44C181.116 21.2 181.583 20.9333 182.009 20.64C182.303 20.4267 182.543 20.1067 182.729 19.68C182.943 19.2533 183.036 18.84 183.009 18.44C182.983 17.72 182.889 17.04 182.729 16.4C182.596 15.76 182.369 15.2 182.049 14.72C181.729 14.24 181.289 13.8667 180.729 13.6C180.169 13.3067 179.463 13.16 178.609 13.16C178.076 13.16 177.516 13.2133 176.929 13.32C176.369 13.4267 175.849 13.6133 175.369 13.88C174.889 14.12 174.489 14.4533 174.169 14.88C173.849 15.28 173.689 15.8 173.689 16.44L173.729 17.88C173.729 18.28 173.636 18.6267 173.449 18.92C173.263 19.1867 172.943 19.32 172.489 19.32C172.063 19.32 171.756 19.1733 171.569 18.88C171.409 18.56 171.329 18.2133 171.329 17.84C171.329 17.04 171.543 16.3333 171.969 15.72C172.423 15.1067 172.996 14.5867 173.689 14.16C174.409 13.7333 175.196 13.4133 176.049 13.2C176.929 12.96 177.783 12.84 178.609 12.84C179.249 12.84 179.889 12.8933 180.529 13C181.196 13.08 181.809 13.24 182.369 13.48C182.929 13.6933 183.436 14 183.889 14.4C184.343 14.7733 184.703 15.2667 184.969 15.88C185.023 16.04 185.103 16.4133 185.209 17C185.316 17.56 185.369 18.52 185.369 19.88V27.52C185.369 28.2667 185.369 28.8933 185.369 29.4C185.369 29.88 185.369 30.28 185.369 30.6C185.396 30.8933 185.409 31.1333 185.409 31.32C185.436 31.48 185.463 31.6 185.489 31.68C185.596 32.2133 185.783 32.6667 186.049 33.04C186.343 33.4133 186.796 33.6 187.409 33.6H187.649C187.196 34.0267 186.689 34.3733 186.129 34.64C185.596 34.9067 185.009 35.04 184.369 35.04C183.943 35.04 183.556 34.96 183.209 34.8C182.863 34.64 182.516 34.4667 182.169 34.28C181.663 34.0133 181.209 33.8267 180.809 33.72C180.436 33.6133 180.103 33.56 179.809 33.56C179.383 33.56 178.996 33.64 178.649 33.8C178.329 33.9333 177.996 34.0933 177.649 34.28C177.303 34.44 176.916 34.6 176.489 34.76C176.063 34.8933 175.543 34.96 174.929 34.96C173.463 34.96 172.343 34.4933 171.569 33.56C170.823 32.6267 170.449 31.4533 170.449 30.04ZM174.129 32.44C174.529 32.8667 174.969 33.2133 175.449 33.48C175.929 33.72 176.436 33.84 176.969 33.84C177.369 33.84 177.769 33.76 178.169 33.6C178.489 33.4667 178.783 33.3733 179.049 33.32C179.343 33.2667 179.609 33.24 179.849 33.24C180.329 33.24 180.769 33.32 181.169 33.48C181.569 33.64 181.956 33.8267 182.329 34.04C182.543 34.1733 182.769 34.2933 183.009 34.4C183.276 34.5067 183.529 34.5867 183.769 34.64C183.716 34.6133 183.676 34.5867 183.649 34.56C183.649 34.5333 183.623 34.4933 183.569 34.44C183.436 34.3067 183.316 34.0667 183.209 33.72C183.103 33.3467 183.036 32.8133 183.009 32.12V20.24C182.529 20.72 181.956 21.1333 181.289 21.48C180.623 21.8 179.903 22.1333 179.129 22.48C178.143 22.88 177.129 23.4267 176.089 24.12C175.076 24.7867 174.249 25.5467 173.609 26.4C172.996 27.2533 172.676 28.2 172.649 29.24C172.623 30.2533 173.116 31.32 174.129 32.44Z" fill="black"/>
</svg>
