<svg width="44" height="40" viewBox="0 0 44 40" fill="none" xmlns="http://www.w3.org/2000/svg">
<path fill-rule="evenodd" clip-rule="evenodd" d="M1.12498 14.7499C1.69998 14.7499 2.16665 15.2166 2.16665 15.7916V19.5249L6.63748 15.0541C7.04581 14.6478 7.70415 14.6478 8.11248 15.0541C8.51873 15.4624 8.51873 16.1208 8.11248 16.5291L3.63748 20.9999H7.37498C7.8854 20.9999 8.31248 21.3687 8.39998 21.8541L8.41665 22.0416C8.41665 22.6166 7.94998 23.0833 7.37498 23.0833H1.12498C0.54998 23.0833 0.083313 22.6166 0.083313 22.0416V15.7916C0.083313 15.2166 0.54998 14.7499 1.12498 14.7499ZM25.0833 0.166531C27.3854 0.166531 29.25 2.03117 29.25 4.33325L29.2479 12.702C30.775 12.4958 32.3333 13.2041 33.1729 14.4333C34.8708 13.8541 36.8854 14.5416 37.8604 15.9958C40.4854 15.0978 43.3604 17.177 43.3125 19.9583V22.8291C43.3125 25.7166 42.5625 29.8603 41.4687 31.7353L39.6666 34.8187V38.7082C39.6708 39.2895 39.1875 39.7499 38.625 39.7499C38.05 39.7499 37.5833 39.2832 37.5833 38.7082V34.5416C37.5833 34.3562 37.6312 34.1749 37.725 34.0166L39.6687 30.6853C40.5375 29.1937 41.2291 25.3812 41.2291 22.8291V19.9583C41.2771 18.3353 39.3062 17.2916 37.9937 18.2249C37.4791 18.5749 36.7916 18.3937 36.5 17.8728C36.1333 16.5416 34.4625 15.8437 33.3062 16.6624C32.7916 17.0124 32.1041 16.8312 31.8125 16.3103C31.45 15.0291 29.9021 14.3208 28.7291 15.0291C28.0354 15.4291 27.1666 14.9291 27.1666 14.127V4.33325C27.1666 3.18325 26.2333 2.24992 25.0833 2.24992C23.9333 2.24992 23 3.18325 23 4.33325V22.4228C23 22.6291 23.0062 22.8333 23.0166 23.0374C23.0604 23.8353 22.225 24.3833 21.5104 24.0249L20.584 23.5542C19.9298 23.2434 19.2201 22.9888 18.5604 23.0916C16.3708 23.2249 14.6562 25.0812 14.6666 27.2499L17.0708 27.252C17.8062 27.2687 18.5146 27.5374 19.0791 28.0333L26.8229 35.0291C27.0416 35.227 27.1666 35.5083 27.1666 35.802V38.7082C27.1666 39.2832 26.7 39.7499 26.125 39.7499C25.55 39.7499 25.0833 39.2832 25.0833 38.7082V36.2666L17.6958 29.5895C17.5 29.4166 17.2604 29.3353 17.0083 29.3333H14.6666C13.5041 29.3333 12.5791 28.377 12.5833 27.2166C12.6 23.9312 15.1604 21.2249 18.4625 21.0103C19.2979 20.9603 20.1521 21.077 20.9166 21.4103V4.33325C20.9083 2.027 22.8125 0.158253 25.0833 0.166531ZM17.7916 4.33325C18.3666 4.33325 18.8333 4.79992 18.8333 5.37492V11.6249C18.8333 12.1999 18.3666 12.6666 17.7916 12.6666C17.2166 12.6666 16.75 12.1999 16.75 11.6249L16.7479 7.8895L12.2791 12.3624C11.8708 12.7687 11.2125 12.7687 10.8041 12.3624C10.3979 11.9541 10.3979 11.2958 10.8041 10.8874L15.275 6.41659H11.5416C11.0312 6.41659 10.6041 6.04784 10.5166 5.56242L10.5 5.37492C10.5 4.79992 10.9666 4.33325 11.5416 4.33325H17.7916Z" fill="black"/>
</svg>
